<svg id="mermaid-1589958633367" width="1118.5160675048828" xmlns="http://www.w3.org/2000/svg" viewBox="0  0 639.1520385742188 563"><style>#mermaid-1589958633367 .label{font-family:'trebuchet ms', verdana, arial;font-family:var(--mermaid-font-family);color:#333}#mermaid-1589958633367 .label text{fill:#333}#mermaid-1589958633367 .node rect,#mermaid-1589958633367 .node circle,#mermaid-1589958633367 .node ellipse,#mermaid-1589958633367 .node polygon,#mermaid-1589958633367 .node path{fill:#ECECFF;stroke:#9370db;stroke-width:1px}#mermaid-1589958633367 .node .label{text-align:center}#mermaid-1589958633367 .node.clickable{cursor:pointer}#mermaid-1589958633367 .arrowheadPath{fill:#333}#mermaid-1589958633367 .edgePath .path{stroke:#333;stroke-width:1.5px}#mermaid-1589958633367 .edgeLabel{background-color:#e8e8e8;text-align:center}#mermaid-1589958633367 .cluster rect{fill:#ffffde;stroke:#aa3;stroke-width:1px}#mermaid-1589958633367 .cluster text{fill:#333}#mermaid-1589958633367 div.mermaidTooltip{position:absolute;text-align:center;max-width:200px;padding:2px;font-family:'trebuchet ms', verdana, arial;font-family:var(--mermaid-font-family);font-size:12px;background:#ffffde;border:1px solid #aa3;border-radius:2px;pointer-events:none;z-index:100}#mermaid-1589958633367 .actor{stroke:#ccf;fill:#ECECFF}#mermaid-1589958633367 text.actor{fill:#000;stroke:none}#mermaid-1589958633367 .actor-line{stroke:grey}#mermaid-1589958633367 .messageLine0{stroke-width:1.5;stroke-dasharray:'2 2';stroke:#333}#mermaid-1589958633367 .messageLine1{stroke-width:1.5;stroke-dasharray:'2 2';stroke:#333}#mermaid-1589958633367 #arrowhead{fill:#333}#mermaid-1589958633367 .sequenceNumber{fill:#fff}#mermaid-1589958633367 #sequencenumber{fill:#333}#mermaid-1589958633367 #crosshead path{fill:#333 !important;stroke:#333 !important}#mermaid-1589958633367 .messageText{fill:#333;stroke:none}#mermaid-1589958633367 .labelBox{stroke:#ccf;fill:#ECECFF}#mermaid-1589958633367 .labelText{fill:#000;stroke:none}#mermaid-1589958633367 .loopText{fill:#000;stroke:none}#mermaid-1589958633367 .loopLine{stroke-width:2;stroke-dasharray:'2 2';stroke:#ccf}#mermaid-1589958633367 .note{stroke:#aa3;fill:#fff5ad}#mermaid-1589958633367 .noteText{fill:black;stroke:none;font-family:'trebuchet ms', verdana, arial;font-family:var(--mermaid-font-family);font-size:14px}#mermaid-1589958633367 .activation0{fill:#f4f4f4;stroke:#666}#mermaid-1589958633367 .activation1{fill:#f4f4f4;stroke:#666}#mermaid-1589958633367 .activation2{fill:#f4f4f4;stroke:#666}#mermaid-1589958633367 .mermaid-main-font{font-family:"trebuchet ms", verdana, arial;font-family:var(--mermaid-font-family)}#mermaid-1589958633367 .section{stroke:none;opacity:0.2}#mermaid-1589958633367 .section0{fill:rgba(102,102,255,0.49)}#mermaid-1589958633367 .section2{fill:#fff400}#mermaid-1589958633367 .section1,#mermaid-1589958633367 .section3{fill:#fff;opacity:0.2}#mermaid-1589958633367 .sectionTitle0{fill:#333}#mermaid-1589958633367 .sectionTitle1{fill:#333}#mermaid-1589958633367 .sectionTitle2{fill:#333}#mermaid-1589958633367 .sectionTitle3{fill:#333}#mermaid-1589958633367 .sectionTitle{text-anchor:start;font-size:11px;text-height:14px;font-family:'trebuchet ms', verdana, arial;font-family:var(--mermaid-font-family)}#mermaid-1589958633367 .grid .tick{stroke:#d3d3d3;opacity:0.8;shape-rendering:crispEdges}#mermaid-1589958633367 .grid .tick text{font-family:'trebuchet ms', verdana, arial;font-family:var(--mermaid-font-family)}#mermaid-1589958633367 .grid path{stroke-width:0}#mermaid-1589958633367 .today{fill:none;stroke:red;stroke-width:2px}#mermaid-1589958633367 .task{stroke-width:2}#mermaid-1589958633367 .taskText{text-anchor:middle;font-family:'trebuchet ms', verdana, arial;font-family:var(--mermaid-font-family)}#mermaid-1589958633367 .taskText:not([font-size]){font-size:11px}#mermaid-1589958633367 .taskTextOutsideRight{fill:#000;text-anchor:start;font-size:11px;font-family:'trebuchet ms', verdana, arial;font-family:var(--mermaid-font-family)}#mermaid-1589958633367 .taskTextOutsideLeft{fill:#000;text-anchor:end;font-size:11px}#mermaid-1589958633367 .task.clickable{cursor:pointer}#mermaid-1589958633367 .taskText.clickable{cursor:pointer;fill:#003163 !important;font-weight:bold}#mermaid-1589958633367 .taskTextOutsideLeft.clickable{cursor:pointer;fill:#003163 !important;font-weight:bold}#mermaid-1589958633367 .taskTextOutsideRight.clickable{cursor:pointer;fill:#003163 !important;font-weight:bold}#mermaid-1589958633367 .taskText0,#mermaid-1589958633367 .taskText1,#mermaid-1589958633367 .taskText2,#mermaid-1589958633367 .taskText3{fill:#fff}#mermaid-1589958633367 .task0,#mermaid-1589958633367 .task1,#mermaid-1589958633367 .task2,#mermaid-1589958633367 .task3{fill:#8a90dd;stroke:#534fbc}#mermaid-1589958633367 .taskTextOutside0,#mermaid-1589958633367 .taskTextOutside2{fill:#000}#mermaid-1589958633367 .taskTextOutside1,#mermaid-1589958633367 .taskTextOutside3{fill:#000}#mermaid-1589958633367 .active0,#mermaid-1589958633367 .active1,#mermaid-1589958633367 .active2,#mermaid-1589958633367 .active3{fill:#bfc7ff;stroke:#534fbc}#mermaid-1589958633367 .activeText0,#mermaid-1589958633367 .activeText1,#mermaid-1589958633367 .activeText2,#mermaid-1589958633367 .activeText3{fill:#000 !important}#mermaid-1589958633367 .done0,#mermaid-1589958633367 .done1,#mermaid-1589958633367 .done2,#mermaid-1589958633367 .done3{stroke:grey;fill:#d3d3d3;stroke-width:2}#mermaid-1589958633367 .doneText0,#mermaid-1589958633367 .doneText1,#mermaid-1589958633367 .doneText2,#mermaid-1589958633367 .doneText3{fill:#000 !important}#mermaid-1589958633367 .crit0,#mermaid-1589958633367 .crit1,#mermaid-1589958633367 .crit2,#mermaid-1589958633367 .crit3{stroke:#f88;fill:red;stroke-width:2}#mermaid-1589958633367 .activeCrit0,#mermaid-1589958633367 .activeCrit1,#mermaid-1589958633367 .activeCrit2,#mermaid-1589958633367 .activeCrit3{stroke:#f88;fill:#bfc7ff;stroke-width:2}#mermaid-1589958633367 .doneCrit0,#mermaid-1589958633367 .doneCrit1,#mermaid-1589958633367 .doneCrit2,#mermaid-1589958633367 .doneCrit3{stroke:#f88;fill:#d3d3d3;stroke-width:2;cursor:pointer;shape-rendering:crispEdges}#mermaid-1589958633367 .milestone{transform:rotate(45deg) scale(0.8, 0.8)}#mermaid-1589958633367 .milestoneText{font-style:italic}#mermaid-1589958633367 .doneCritText0,#mermaid-1589958633367 .doneCritText1,#mermaid-1589958633367 .doneCritText2,#mermaid-1589958633367 .doneCritText3{fill:#000 !important}#mermaid-1589958633367 .activeCritText0,#mermaid-1589958633367 .activeCritText1,#mermaid-1589958633367 .activeCritText2,#mermaid-1589958633367 .activeCritText3{fill:#000 !important}#mermaid-1589958633367 .titleText{text-anchor:middle;font-size:18px;fill:#000;font-family:'trebuchet ms', verdana, arial;font-family:var(--mermaid-font-family)}#mermaid-1589958633367 g.classGroup text{fill:#9370db;stroke:none;font-family:'trebuchet ms', verdana, arial;font-family:var(--mermaid-font-family);font-size:10px}#mermaid-1589958633367 g.classGroup text .title{font-weight:bolder}#mermaid-1589958633367 g.clickable{cursor:pointer}#mermaid-1589958633367 g.classGroup rect{fill:#ECECFF;stroke:#9370db}#mermaid-1589958633367 g.classGroup line{stroke:#9370db;stroke-width:1}#mermaid-1589958633367 .classLabel .box{stroke:none;stroke-width:0;fill:#ECECFF;opacity:0.5}#mermaid-1589958633367 .classLabel .label{fill:#9370db;font-size:10px}#mermaid-1589958633367 .relation{stroke:#9370db;stroke-width:1;fill:none}#mermaid-1589958633367 .dashed-line{stroke-dasharray:3}#mermaid-1589958633367 #compositionStart{fill:#9370db;stroke:#9370db;stroke-width:1}#mermaid-1589958633367 #compositionEnd{fill:#9370db;stroke:#9370db;stroke-width:1}#mermaid-1589958633367 #aggregationStart{fill:#ECECFF;stroke:#9370db;stroke-width:1}#mermaid-1589958633367 #aggregationEnd{fill:#ECECFF;stroke:#9370db;stroke-width:1}#mermaid-1589958633367 #dependencyStart{fill:#9370db;stroke:#9370db;stroke-width:1}#mermaid-1589958633367 #dependencyEnd{fill:#9370db;stroke:#9370db;stroke-width:1}#mermaid-1589958633367 #extensionStart{fill:#9370db;stroke:#9370db;stroke-width:1}#mermaid-1589958633367 #extensionEnd{fill:#9370db;stroke:#9370db;stroke-width:1}#mermaid-1589958633367 .commit-id,#mermaid-1589958633367 .commit-msg,#mermaid-1589958633367 .branch-label{fill:lightgrey;color:lightgrey;font-family:'trebuchet ms', verdana, arial;font-family:var(--mermaid-font-family)}#mermaid-1589958633367 .pieTitleText{text-anchor:middle;font-size:25px;fill:#000;font-family:'trebuchet ms', verdana, arial;font-family:var(--mermaid-font-family)}#mermaid-1589958633367 .slice{font-family:'trebuchet ms', verdana, arial;font-family:var(--mermaid-font-family)}#mermaid-1589958633367 g.stateGroup text{fill:#9370db;stroke:none;font-size:10px;font-family:'trebuchet ms', verdana, arial;font-family:var(--mermaid-font-family)}#mermaid-1589958633367 g.stateGroup text{fill:#9370db;stroke:none;font-size:10px}#mermaid-1589958633367 g.stateGroup .state-title{font-weight:bolder;fill:#000}#mermaid-1589958633367 g.stateGroup rect{fill:#ECECFF;stroke:#9370db}#mermaid-1589958633367 g.stateGroup line{stroke:#9370db;stroke-width:1}#mermaid-1589958633367 .transition{stroke:#9370db;stroke-width:1;fill:none}#mermaid-1589958633367 .stateGroup .composit{fill:white;border-bottom:1px}#mermaid-1589958633367 .stateGroup .alt-composit{fill:#e0e0e0;border-bottom:1px}#mermaid-1589958633367 .state-note{stroke:#aa3;fill:#fff5ad}#mermaid-1589958633367 .state-note text{fill:black;stroke:none;font-size:10px}#mermaid-1589958633367 .stateLabel .box{stroke:none;stroke-width:0;fill:#ECECFF;opacity:0.5}#mermaid-1589958633367 .stateLabel text{fill:#000;font-size:10px;font-weight:bold;font-family:'trebuchet ms', verdana, arial;font-family:var(--mermaid-font-family)}:root{--mermaid-font-family: '"trebuchet ms", verdana, arial';--mermaid-font-family: "Comic Sans MS", "Comic Sans", cursive}

:root { --mermaid-font-family: "trebuchet ms", verdana, arial;}</style><style>#mermaid-1589958633367 {
    color: rgb(212, 212, 212);
    font: normal normal 400 normal 13px / normal "trebuchet ms", verdana, arial;
  }</style><g></g><defs><marker id="dependencyEnd" refX="19" refY="7" markerWidth="20" markerHeight="28" orient="auto"><path d="M 19,7 L9,13 L14,7 L9,1 Z"></path></marker></defs><g id="start3" class="stateGroup" transform="translate(73.91312500000004,0 )" data-x-shift="73.91312500000004"><circle r="5" cx="13" cy="13" style="stroke: black; fill: black;"></circle></g><g id="Menu" class="stateGroup" transform="translate(57.858437500000036,62 )" data-x-shift="57.858437500000036"><rect x="8" y="8" width="42.109375" height="27" rx="5"></rect><text x="16" y="26" font-size="24" class="state-title">Menu</text></g><g id="Training" class="stateGroup" transform="translate(0,141 )" data-x-shift="0"><rect x="8" y="8" width="55.15625" height="27" rx="5"></rect><text x="16" y="26" font-size="24" class="state-title">Training</text></g><g id="Start_Game" class="stateGroup" transform="translate(309.7259375,141 )" data-x-shift="309.7259375"><rect x="8" y="8" width="71.140625" height="27" rx="5"></rect><text x="16" y="26" font-size="24" class="state-title">Start_Game</text></g><g id="Hi_score_view" class="stateGroup" transform="translate(515.5154687499999,520 )" data-x-shift="515.5154687499999"><rect x="8" y="8" width="85.96875" height="27" rx="5"></rect><text x="16" y="26" font-size="24" class="state-title">Hi_score_view</text></g><g id="Level_1" class="stateGroup" transform="translate(318.811875,220 )" data-x-shift="318.811875"><rect x="8" y="8" width="52.96875" height="27" rx="5"></rect><text x="16" y="26" font-size="24" class="state-title">Level_1</text></g><g id="Level_2" class="stateGroup" transform="translate(370.00312499999995,299 )" data-x-shift="370.00312499999995"><rect x="8" y="8" width="53.109375" height="27" rx="5"></rect><text x="16" y="26" font-size="24" class="state-title">Level_2</text></g><g id="Level_3" class="stateGroup" transform="translate(418.37624999999997,378 )" data-x-shift="418.37624999999997"><rect x="8" y="8" width="53.109375" height="27" rx="5"></rect><text x="16" y="26" font-size="24" class="state-title">Level_3</text></g><g id="Hi_score_input" class="stateGroup" transform="translate(484.1178124999999,457 )" data-x-shift="484.1178124999999"><rect x="8" y="8" width="88.265625" height="27" rx="5"></rect><text x="16" y="26" font-size="24" class="state-title">Hi_score_input</text></g><g id="Paused" class="stateGroup" transform="translate(267.55156249999993,457 )" data-x-shift="267.55156249999993"><rect x="8" y="8" width="48.703125" height="27" rx="5"></rect><text x="16" y="26" font-size="24" class="state-title">Paused</text></g><path d="M86.91312500000004,26L86.91312500000004,29C86.91312500000004,32,86.91312500000004,38,86.91312500000004,44C86.91312500000004,50,86.91312500000004,56,86.91312500000004,59L86.91312500000004,62" id="edge40" class="transition" marker-end="url(#dependencyEnd)"></path><g class="stateLabel"><rect class="box" x="61.15625" y="31" width="51.609375" height="19"></rect><text text-anchor="middle" x="86.91312500000004" y="44">Power on</text><text text-anchor="middle" x="86.91312500000004" y="55"></text></g><path d="M57.858437500000036,101.12918826804915L51.8508854166667,104.77432355670761C45.84333333333336,108.4194588453661,33.82822916666669,115.70972942268304,28.866120121308033,122.35486471134152C23.90401107594938,129,25.994897151898744,135,27.04034018987343,138L28.085783227848108,141" id="edge41" class="transition" marker-end="url(#dependencyEnd)"></path><path d="M115.96781250000004,87.80830652748743L155.52255208333335,93.6735887729062C195.0772916666667,99.53887101832497,274.18677083333336,111.26943550916248,313.74151041666664,120.13471775458123C353.29625000000004,129,353.29625000000004,135,353.29624999999993,138L353.29625,141" id="edge42" class="transition" marker-end="url(#dependencyEnd)"></path><path d="M105.99641613924051,105L108.65920094936708,108C111.32198575949367,111,116.64755537974683,117,119.3103401898734,126.58333333333333C121.97312499999998,136.16666666666666,121.97312499999998,149.33333333333334,121.97312499999998,162.5C121.97312499999998,175.66666666666666,121.97312499999998,188.83333333333334,121.97312499999998,202C121.97312499999998,215.16666666666666,121.97312499999998,228.33333333333334,121.97312499999998,241.5C121.97312499999998,254.66666666666666,121.97312499999998,267.8333333333333,121.97312499999998,281C121.97312499999998,294.1666666666667,121.97312499999998,307.3333333333333,121.97312499999998,320.5C121.97312499999998,333.6666666666667,121.97312499999998,346.8333333333333,121.97312499999998,360C121.97312499999998,373.1666666666667,121.97312499999998,386.3333333333333,121.97312499999998,399.5C121.97312499999998,412.6666666666667,121.97312499999998,425.8333333333333,121.97312499999998,439C121.97312499999998,452.1666666666667,121.97312499999998,465.3333333333333,121.97312499999998,477.1666666666667C121.97312499999998,489,121.97312499999998,499.5,187.56351562499995,509.3978585370466C253.15390624999995,519.2957170740932,384.3346874999999,528.5914341481864,449.92507812499986,533.239292685233L515.5154687499999,537.8871512222796" id="edge43" class="transition" marker-end="url(#dependencyEnd)"></path><path d="M43.07046677215189,141L44.115909810126574,138C45.16135284810125,135,47.25223892405062,129,51.151099683544295,123C55.04996044303797,117,60.756795886075956,111,63.61021360759494,108L66.46363132911394,105" id="edge44" class="transition" marker-end="url(#dependencyEnd)"></path><g class="stateLabel"><rect class="box" x="39.75" y="107.890625" width="23.421875" height="19.015625"></rect><text text-anchor="middle" x="51.33489574919769" y="120.90591044468168">Die</text><text text-anchor="middle" x="51.33489574919769" y="131.9215354446817"></text></g><path d="M64.88616297468356,141L68.97565664556963,138C73.06515031645571,135,81.24413765822787,129,85.14299841772154,123C89.04185917721522,117,88.66059335443042,111,88.469960443038,108L88.2793275316456,105" id="edge45" class="transition" marker-end="url(#dependencyEnd)"></path><g class="stateLabel"><rect class="box" x="67.484375" y="113.65625" width="34.921875" height="19.015625"></rect><text text-anchor="middle" x="84.42604671095266" y="126.66579241187429">Reset</text><text text-anchor="middle" x="84.42604671095266" y="137.6814174118743"></text></g><path d="M353.29625,184L353.29624999999993,187C353.29625000000004,190,353.29625000000004,196,353.29624999999993,202C353.29625000000004,208,353.29625000000004,214,353.29624999999993,217L353.29625,220" id="edge46" class="transition" marker-end="url(#dependencyEnd)"></path><g class="stateLabel"><rect class="box" x="274.46875" y="189" width="158.6875" height="19"></rect><text text-anchor="middle" x="353.29625" y="202">Delay / Press mouse btn to start</text><text text-anchor="middle" x="353.29625" y="213"></text></g><path d="M381.1981131329114,263L385.0913963607595,266C388.98467958860755,269,396.7712460443038,275,400.66452927215187,281C404.55781249999995,287,404.55781249999995,293,404.55781249999995,296L404.55781249999995,299" id="edge47" class="transition" marker-end="url(#dependencyEnd)"></path><g class="stateLabel"><rect class="box" x="386.140625" y="264.484375" width="26.828125" height="19.015625"></rect><text text-anchor="middle" x="400.00700406062197" y="277.49333877882805">Win</text><text text-anchor="middle" x="400.00700406062197" y="288.50896377882805"></text></g><path d="M430.88748813291136,342L434.5613963607594,345C438.23530458860756,348,445.5831210443037,354,449.25702927215184,360C452.93093749999997,366,452.93093749999997,372,452.93093749999997,375L452.93093749999997,378" id="edge48" class="transition" marker-end="url(#dependencyEnd)"></path><g class="stateLabel"><rect class="box" x="435.015625" y="343.6875" width="26.828125" height="19.015625"></rect><text text-anchor="middle" x="448.8803351100185" y="356.69240318039675">Win</text><text text-anchor="middle" x="448.8803351100185" y="367.70802818039675"></text></g><path d="M387.780625,249.55093589653606L410.23145833333325,254.79244658044672C432.6822916666667,260.0339572643574,477.5839583333333,270.5169786321787,500.03479166666654,282.3418226494227C522.4856249999999,294.1666666666667,522.4856249999999,307.3333333333333,522.4856249999999,320.5C522.4856249999999,333.6666666666667,522.4856249999999,346.8333333333333,522.4856249999999,360C522.4856249999999,373.1666666666667,522.4856249999999,386.3333333333333,522.4856249999999,399.5C522.4856249999999,412.6666666666667,522.4856249999999,425.8333333333333,523.5310680379746,435.4166666666667C524.5765110759493,445,526.6673971518986,451,527.7128401898733,454L528.758283227848,457" id="edge49" class="transition" marker-end="url(#dependencyEnd)"></path><g class="stateLabel"><rect class="box" x="510.90625" y="287.359375" width="23.421875" height="19.015625"></rect><text text-anchor="middle" x="522.4856249999998" y="300.3671015949811">Die</text><text text-anchor="middle" x="522.4856249999998" y="311.3827265949811"></text></g><path d="M439.11249999999995,329.8835465609659L457.5963541666667,334.9029554674716C476.0802083333333,339.92236437397725,513.0479166666667,349.96118218698865,531.5317708333333,361.56392442682767C550.015625,373.1666666666667,550.015625,386.3333333333333,550.015625,399.5C550.015625,412.6666666666667,550.015625,425.8333333333333,548.9701819620253,435.4166666666667C547.9247389240505,445,545.8338528481012,451,544.7884098101265,454L543.7429667721518,457" id="edge50" class="transition" marker-end="url(#dependencyEnd)"></path><g class="stateLabel"><rect class="box" x="530.296875" y="344.78125" width="23.421875" height="19.015625"></rect><text text-anchor="middle" x="541.8812608782031" y="357.7910613580073">Die</text><text text-anchor="middle" x="541.8812608782031" y="368.8066863580073"></text></g><path d="M487.48562499999997,409.63637313034496L504.16895833333336,414.53031094195416C520.8522916666666,419.4242487535633,554.2189583333333,429.2121243767817,567.0034309071729,437.1060621883908C579.7879034810126,445,571.9901819620253,451,568.0913212025316,454L564.1924604430379,457" id="edge51" class="transition" marker-end="url(#dependencyEnd)"></path><g class="stateLabel"><rect class="box" x="529.296875" y="415.46875" width="44.890625" height="19.015625"></rect><text text-anchor="middle" x="551.6972803235864" y="428.4724079715507">Die/Win</text><text text-anchor="middle" x="551.6972803235864" y="439.4880329715507"></text></g><path d="M318.811875,249.22392803824022L295.1672135416666,254.51994003186687C271.5225520833333,259.81595202549346,224.23322916666666,270.40797601274676,200.58856770833336,282.2873213397067C176.94390624999997,294.1666666666667,176.94390624999997,307.3333333333333,176.94390625000003,320.5C176.94390624999997,333.6666666666667,176.94390624999997,346.8333333333333,176.94390625000003,360C176.94390624999997,373.1666666666667,176.94390624999997,386.3333333333333,176.94390625000003,399.5C176.94390624999997,412.6666666666667,176.94390624999997,425.8333333333333,192.0451822916667,437.2678718850296C207.1464583333333,448.70241043672587,237.34901041666663,458.40482087345185,252.45028645833327,463.2560260918148L267.55156249999993,468.1072313101778" id="edge52" class="transition" marker-end="url(#dependencyEnd)"></path><g class="stateLabel"><rect class="box" x="148.609375" y="321.890625" width="56.765625" height="19.015625"></rect><text text-anchor="middle" x="176.94390625" y="334.8925400768516">pause_btn</text><text text-anchor="middle" x="176.94390625" y="345.9081650768516"></text></g><path d="M302.5216515031645,457L302.8870272943038,454C303.25240308544295,451,303.98315466772146,445,304.34853045886075,435.4166666666667C304.71390625,425.8333333333333,304.71390625,412.6666666666667,304.71390625,399.5C304.71390625,386.3333333333333,304.71390625,373.1666666666667,304.71390625,360C304.71390625,346.8333333333333,304.71390625,333.6666666666667,304.71390625,320.5C304.71390625,307.3333333333333,304.71390625,294.1666666666667,308.40370450949365,284.5833333333333C312.0935027689873,275,319.47309928797466,269,323.16289754746833,266L326.852695806962,263" id="edge53" class="transition" marker-end="url(#dependencyEnd)"></path><g class="stateLabel"><rect class="box" x="276.375" y="341.796875" width="56.765625" height="19.015625"></rect><text text-anchor="middle" x="304.71390625" y="354.8000573479904">pause_btn</text><text text-anchor="middle" x="304.71390625" y="365.8156823479904"></text></g><path d="M370.00312499999995,327.8769394664372L344.92492187499994,333.23078288869766C319.84671875,338.58462631095813,269.69031249999995,349.2923131554791,244.61210937499996,361.2294899110729C219.53390624999997,373.1666666666667,219.53390624999997,386.3333333333333,219.53390624999997,399.5C219.53390624999997,412.6666666666667,219.53390624999997,425.8333333333333,227.5368489583333,436.3499665281782C235.53979166666662,446.86659972302306,251.5456770833333,454.73319944604617,259.5486197916666,458.6664993075577L267.55156249999993,462.5997991690693" id="edge54" class="transition" marker-end="url(#dependencyEnd)"></path><g class="stateLabel"><rect class="box" x="201.640625" y="344.765625" width="56.765625" height="19.015625"></rect><text text-anchor="middle" x="229.97669935115994" y="357.7706106423974">pause_btn</text><text text-anchor="middle" x="229.97669935115994" y="368.7862356423974"></text></g><path d="M332.25468749999993,457.51082247749275L337.0099479166666,454.4256853979106C341.76520833333325,451.3405483183285,351.2757291666667,445.1702741591642,356.03098958333334,435.50180374624875C360.78624999999994,425.8333333333333,360.78624999999994,412.6666666666667,360.78625000000005,399.5C360.78624999999994,386.3333333333333,360.78624999999994,373.1666666666667,364.1106724683544,363.5833333333333C367.4350949367088,354,374.0839398734177,348,377.40836234177215,345L380.73278481012653,342" id="edge55" class="transition" marker-end="url(#dependencyEnd)"></path><g class="stateLabel"><rect class="box" x="332.453125" y="390.0625" width="56.765625" height="19.015625"></rect><text text-anchor="middle" x="360.78625" y="403.0713849764519">pause_btn</text><text text-anchor="middle" x="360.78625" y="414.0870099764519"></text></g><path d="M418.37624999999997,406.6533535599202L392.3341927083333,412.0444612999335C366.29213541666667,417.4355690399468,314.20802083333336,428.21778451997335,291.03527129483126,436.6088922599867C267.8625217563291,445,273.6011372626582,451,276.4704450158227,454L279.3397527689873,457" id="edge56" class="transition" marker-end="url(#dependencyEnd)"></path><g class="stateLabel"><rect class="box" x="299.71875" y="412.34375" width="56.765625" height="19.015625"></rect><text text-anchor="middle" x="328.05488355334654" y="425.3512702523525">pause_btn</text><text text-anchor="middle" x="328.05488355334654" y="436.3668952523525"></text></g><path d="M332.25468749999993,470.14931721970476L352.3673958333332,464.957764349754C372.48010416666665,459.76621147980313,412.7055208333333,449.38310573990157,432.81822916666664,441.1915528699508C452.93093749999997,433,452.93093749999997,427,452.93093749999997,424L452.93093749999997,421" id="edge57" class="transition" marker-end="url(#dependencyEnd)"></path><g class="stateLabel"><rect class="box" x="372.96875" y="439.3125" width="56.765625" height="19.015625"></rect><text text-anchor="middle" x="401.3071850628577" y="452.3252785095332">pause_btn</text><text text-anchor="middle" x="401.3071850628577" y="463.3409035095332"></text></g><path d="M536.2506249999999,500L536.2506249999998,501.6666666666667C536.2506249999999,503.3333333333333,536.2506249999999,506.6666666666667,537.8511127645501,510C539.4516005291003,513.3333333333334,542.6525760582009,516.6666666666666,544.2530638227512,518.3333333333334L545.8535515873015,520" id="edge58" class="transition" marker-end="url(#dependencyEnd)"></path><path d="M610.627527281746,520L614.0482779431217,518.3333333333334C617.4690286044973,516.6666666666666,624.3105299272487,513.3333333333334,627.7312805886244,506.4166666666667C631.1520312499999,499.5,631.1520312499999,489,631.1520312499998,477.1666666666667C631.1520312499999,465.3333333333333,631.1520312499999,452.1666666666667,631.1520312499998,439C631.1520312499999,425.8333333333333,631.1520312499999,412.6666666666667,631.1520312499998,399.5C631.1520312499999,386.3333333333333,631.1520312499999,373.1666666666667,631.1520312499998,360C631.1520312499999,346.8333333333333,631.1520312499999,333.6666666666667,631.1520312499998,320.5C631.1520312499999,307.3333333333333,631.1520312499999,294.1666666666667,631.1520312499998,281C631.1520312499999,267.8333333333333,631.1520312499999,254.66666666666666,631.1520312499998,241.5C631.1520312499999,228.33333333333334,631.1520312499999,215.16666666666666,631.1520312499998,202C631.1520312499999,188.83333333333334,631.1520312499999,175.66666666666666,631.1520312499998,162.5C631.1520312499999,149.33333333333334,631.1520312499999,136.16666666666666,545.2879947916666,123.3514572194522C459.4239583333333,110.53624777223774,287.69588541666667,98.07249554447549,201.83184895833335,91.84061943059434L115.96781250000004,85.60874331671322" id="edge59" class="transition" marker-end="url(#dependencyEnd)"></path></svg>